<svg width="393" height="852" viewBox="0 0 393 852" fill="none" xmlns="http://www.w3.org/2000/svg">
<g clip-path="url(#clip0_74_346)" filter="url(#filter0_f_74_346)">
<path d="M165.759 802.395C173.269 810.347 177.461 821.612 179.907 833.635C182.352 845.657 183.051 858.532 178.684 869.513C174.317 880.589 164.973 889.867 154.318 892.991C143.663 896.115 131.873 893.085 120.171 888.825C108.555 884.471 97.1147 878.885 91.2633 869.135C85.412 859.384 85.2373 845.563 88.1193 833.161C91.0013 820.76 97.1147 809.779 105.586 802.016C114.145 794.159 125.236 789.52 136.24 789.615C147.244 789.615 158.161 794.348 165.759 802.395Z" fill="#B6E147"/>
<path d="M357.979 724.768C364.355 731.111 366.8 741.997 367.935 752.505C369.071 763.108 368.809 773.427 365.141 782.609C361.385 791.792 354.224 800.028 345.229 804.477C336.146 808.927 325.142 809.589 315.273 806.087C305.492 802.584 296.846 794.727 291.868 784.976C286.977 775.131 285.755 763.203 288.637 753.263C291.519 743.323 298.505 735.276 306.278 729.217C314.051 723.253 322.522 719.088 331.867 717.952C341.299 716.816 351.604 718.52 357.979 724.768Z" fill="#B6E147"/>
<path d="M176.588 525.021C183.575 529.944 190.125 536.855 191.959 545.185C193.793 553.421 190.823 563.077 186.282 571.976C181.741 580.78 175.715 588.827 167.68 592.803C159.733 596.684 149.689 596.495 141.131 592.708C132.659 589.016 125.585 581.727 121.219 573.017C116.852 564.403 115.28 554.273 116.852 544.712C118.424 535.245 123.14 526.347 129.952 521.329C136.764 516.407 145.672 515.365 153.881 516.217C162.091 517.164 169.514 520.099 176.588 525.021Z" fill="#B6E147"/>
<path d="M56.9413 9.656C62.5307 14.2 66.81 20.9213 67.6833 28.0213C68.5567 35.1213 65.9367 42.6947 62.094 49.132C58.3387 55.5693 53.3607 60.9653 47.3347 63.332C41.396 65.6987 34.322 65.1307 27.9467 62.5747C21.484 60.1133 15.72 55.7587 12.2267 49.7C8.73334 43.6413 7.51067 35.8787 8.47134 28.3053C9.43201 20.6373 12.576 13.2533 17.7287 8.61467C22.9687 4.07067 30.2173 2.272 37.3787 2.556C44.4527 2.84 51.2647 5.112 56.9413 9.656Z" fill="#B6E147"/>
<path d="M348.373 276.427C354.661 282.58 359.813 289.585 361.385 297.632C362.87 305.679 360.861 314.577 356.495 321.299C352.128 328.02 345.403 332.469 338.329 334.647C331.255 336.824 323.919 336.729 316.583 334.552C309.335 332.469 302.086 328.399 298.069 321.772C294.051 315.24 293.178 306.152 294.139 297.064C295.187 287.976 298.069 278.793 304.007 272.64C309.859 266.487 318.679 263.363 326.714 264.309C334.836 265.256 342.172 270.368 348.373 276.427Z" fill="#B6E147"/>
<path d="M33.012 289.017C39.7367 295.549 44.1907 304.448 46.2867 314.293C48.47 324.139 48.3827 334.931 44.278 343.735C40.1733 352.633 32.1387 359.544 22.9687 363.236C13.7113 366.833 3.40601 367.117 -5.67666 363.615C-14.672 360.017 -22.532 352.728 -26.0253 343.829C-29.5187 334.931 -28.7327 324.423 -26.5493 314.672C-24.366 305.016 -20.8727 296.117 -14.7593 289.491C-8.64599 282.864 7.62939e-06 278.604 8.82067 278.509C17.554 278.415 26.3747 282.58 33.012 289.017Z" fill="#B6E147"/>
<path d="M57.2033 710.284C61.2207 714.544 63.3167 720.887 64.6267 727.513C66.024 734.14 66.6353 741.145 64.1027 746.352C61.57 751.559 55.7187 754.967 50.042 756.103C44.3654 757.333 38.6887 756.387 33.536 754.304C28.3833 752.127 23.7547 748.813 20.698 744.08C17.6413 739.252 16.244 733.004 17.03 727.04C17.9033 721.076 20.96 715.396 25.3267 711.136C29.6933 706.876 35.37 703.941 41.2213 703.752C47.0727 703.468 53.186 705.929 57.2033 710.284Z" fill="#B6E147"/>
<path d="M335.36 -32.376C342.783 -25.1813 348.198 -15.904 349.857 -5.86933C351.604 4.26 349.595 15.1467 345.229 25.6547C340.862 36.1627 334.225 46.292 325.229 49.984C316.234 53.7707 304.881 50.9307 295.449 45.8187C286.017 40.7067 278.331 33.3227 273.441 24.2347C268.463 15.052 266.279 4.16534 267.851 -6.05866C269.423 -16.3773 274.838 -25.9387 282.349 -33.1333C289.859 -40.2333 299.466 -44.9667 308.985 -44.7773C318.592 -44.588 327.937 -39.5707 335.36 -32.376Z" fill="#B6E147"/>
<path d="M211.172 73.0827C219.381 79.804 226.543 88.608 227.416 98.0747C228.202 107.541 222.7 117.576 217.111 126.948C211.521 136.32 205.757 145.124 197.373 150.141C189.077 155.159 178.16 156.579 169.252 152.697C160.257 148.816 153.445 139.728 149.864 129.977C146.371 120.227 146.109 109.908 148.292 100.631C150.388 91.448 154.929 83.212 161.305 76.112C167.767 69.012 175.977 63.048 184.797 62.3854C193.618 61.7227 202.875 66.2667 211.172 73.0827Z" fill="#B6E147"/>
<path d="M123.402 382.832C128.817 388.985 131 398.263 132.659 407.635C134.319 417.101 135.454 426.663 132.135 434.047C128.817 441.431 121.044 446.637 112.747 449.572C104.451 452.507 95.63 453.359 88.7307 450.045C81.744 446.732 76.766 439.159 72.2247 431.112C67.7707 423.16 63.928 414.545 64.6267 406.309C65.3253 398.073 70.74 390.121 77.4647 384.252C84.1893 378.288 92.3113 374.407 100.783 374.028C109.167 373.649 117.9 376.679 123.402 382.832Z" fill="#B6E147"/>
<path d="M351.167 476.173C354.923 480.433 357.281 485.545 358.416 491.225C359.551 496.811 359.377 502.869 357.019 507.697C354.661 512.62 350.032 516.217 344.879 518.3C339.727 520.383 333.963 520.951 328.723 519.152C323.483 517.448 318.767 513.567 315.623 508.265C312.391 502.964 310.819 496.337 312.217 490.752C313.527 485.072 317.806 480.433 322.435 476.363C327.151 472.387 332.129 468.979 337.194 468.884C342.259 468.789 347.412 472.008 351.167 476.173Z" fill="#B6E147"/>
<path d="M54.8453 558.533C62.7927 566.485 68.0327 577.372 68.906 588.259C69.7793 599.145 66.4607 610.032 61.2207 619.783C55.9807 629.533 48.9067 638.053 39.824 642.692C30.654 647.236 19.388 647.899 8.55867 644.68C-2.18333 641.556 -12.576 634.551 -18.602 624.327C-24.628 614.103 -26.2873 600.66 -23.1433 589.3C-19.912 577.94 -11.8773 568.757 -3.05667 560.995C5.85134 553.232 15.5453 546.889 25.8507 546.227C36.0687 545.564 46.898 550.581 54.8453 558.533Z" fill="#B6E147"/>
<path d="M42.2693 155.348C47.2473 159.04 52.0507 163.773 53.186 169.359C54.3213 175.039 51.7887 181.476 48.47 187.44C45.1513 193.309 41.0467 198.516 35.894 200.693C30.654 202.871 24.366 201.924 19.0387 199.273C13.7113 196.623 9.43201 192.268 6.63734 186.967C3.84268 181.665 2.53268 175.512 3.49334 169.643C4.36668 163.773 7.42334 158.283 11.7027 154.401C16.0693 150.52 21.5713 148.248 26.8987 148.532C32.226 148.721 37.2913 151.561 42.2693 155.348Z" fill="#B6E147"/>
<path d="M210.386 275.48C215.801 280.781 218.77 288.828 219.469 296.685C220.255 304.637 218.857 312.495 215.277 319.027C211.783 325.464 206.107 330.576 199.557 333.511C192.919 336.445 185.321 337.203 177.811 335.309C170.213 333.416 162.702 328.872 159.034 321.961C155.366 315.051 155.541 305.773 157.025 296.78C158.51 287.692 161.305 278.888 166.981 273.681C172.571 268.38 181.042 266.676 189.164 267.055C197.286 267.528 205.059 270.179 210.386 275.48Z" fill="#B6E147"/>
<path d="M402.083 145.219C406.973 149.573 411.689 154.307 412.563 159.797C413.436 165.193 410.379 171.347 406.799 176.459C403.305 181.571 399.288 185.641 394.223 188.292C389.157 191.037 383.131 192.457 377.455 191.037C371.778 189.523 366.538 185.168 364.267 179.488C362.084 173.903 362.87 167.087 364.18 160.649C365.49 154.117 367.324 148.059 371.254 143.42C375.097 138.876 381.035 135.847 386.537 136.32C392.039 136.793 397.105 140.864 402.083 145.219Z" fill="#B6E147"/>
<path d="M259.118 631.427C264.533 636.728 266.891 645.627 267.327 654.147C267.851 662.572 266.454 670.524 263.31 678.476C260.253 686.428 255.363 694.285 248.551 697.693C241.651 701.196 232.656 700.249 225.495 696.368C218.333 692.487 212.919 685.765 209.513 678.287C206.107 670.808 204.797 662.667 205.757 654.525C206.718 646.479 210.037 638.527 215.539 633.225C221.041 627.924 228.901 625.273 237.023 624.895C245.145 624.421 253.616 626.125 259.118 631.427Z" fill="#B6E147"/>
<path d="M246.717 408.203C254.577 415.871 261.039 424.959 263.747 435.561C266.367 446.164 265.231 458.376 259.991 467.843C254.751 477.404 245.494 484.125 235.625 487.06C225.757 489.9 215.451 488.859 206.369 484.883C197.199 480.907 189.426 473.996 184.099 465.097C178.771 456.104 175.889 445.123 177.374 434.615C178.771 424.107 184.448 414.261 192.308 406.593C200.081 398.925 210.124 393.435 219.731 393.908C229.425 394.287 238.769 400.535 246.717 408.203Z" fill="#B6E147"/>
<path d="M387.411 605.961C394.31 611.452 399.987 619.404 401.559 628.208C403.218 637.107 400.86 646.952 395.882 653.957C390.904 660.963 383.306 665.128 375.184 668.536C367.149 671.849 358.678 674.405 351.167 672.228C343.657 670.051 337.019 663.14 332.827 654.999C328.635 646.763 326.801 637.296 328.985 629.249C331.168 621.297 337.281 614.765 343.744 609.275C350.294 603.784 357.281 599.145 364.791 598.388C372.389 597.536 380.511 600.565 387.411 605.961Z" fill="#B6E147"/>
</g>
<defs>
<filter id="filter0_f_74_346" x="-20" y="-20" width="433" height="892" filterUnits="userSpaceOnUse" color-interpolation-filters="sRGB">
<feFlood flood-opacity="0" result="BackgroundImageFix"/>
<feBlend mode="normal" in="SourceGraphic" in2="BackgroundImageFix" result="shape"/>
<feGaussianBlur stdDeviation="10" result="effect1_foregroundBlur_74_346"/>
</filter>
<clipPath id="clip0_74_346">
<rect width="393" height="852" fill="white"/>
</clipPath>
</defs>
</svg>
