<svg width="1804" height="976" viewBox="0 0 1804 976" fill="none" xmlns="http://www.w3.org/2000/svg">
<g clip-path="url(#clip0_405_1112)" filter="url(#filter0_f_405_1112)">
<path d="M213.759 864.395C221.269 872.347 225.461 883.612 227.907 895.635C230.352 907.657 231.051 920.532 226.684 931.513C222.317 942.589 212.973 951.867 202.318 954.991C191.663 958.115 179.873 955.085 168.171 950.825C156.555 946.471 145.115 940.885 139.263 931.135C133.412 921.384 133.237 907.563 136.119 895.161C139.001 882.76 145.115 871.779 153.586 864.016C162.145 856.159 173.236 851.52 184.24 851.615C195.244 851.615 206.161 856.348 213.759 864.395Z" fill="#B6E147"/>
<path d="M405.979 786.768C412.355 793.111 414.8 803.997 415.935 814.505C417.071 825.108 416.809 835.427 413.141 844.609C409.385 853.792 402.224 862.028 393.229 866.477C384.146 870.927 373.142 871.589 363.273 868.087C353.492 864.584 344.846 856.727 339.868 846.976C334.977 837.131 333.755 825.203 336.637 815.263C339.519 805.323 346.505 797.276 354.278 791.217C362.051 785.253 370.522 781.088 379.867 779.952C389.299 778.816 399.604 780.52 405.979 786.768Z" fill="#B6E147"/>
<path d="M224.588 587.021C231.575 591.944 238.125 598.855 239.959 607.185C241.793 615.421 238.824 625.077 234.282 633.976C229.741 642.78 223.715 650.827 215.68 654.803C207.733 658.684 197.69 658.495 189.131 654.708C180.66 651.016 173.586 643.727 169.219 635.017C164.852 626.403 163.28 616.273 164.852 606.712C166.424 597.245 171.14 588.347 177.952 583.329C184.764 578.407 193.672 577.365 201.882 578.217C210.091 579.164 217.514 582.099 224.588 587.021Z" fill="#B6E147"/>
<path d="M104.941 71.656C110.531 76.2 114.81 82.9213 115.683 90.0213C116.557 97.1213 113.937 104.695 110.094 111.132C106.339 117.569 101.361 122.965 95.3347 125.332C89.396 127.699 82.322 127.131 75.9467 124.575C69.484 122.113 63.72 117.759 60.2267 111.7C56.7334 105.641 55.5107 97.8787 56.4714 90.3053C57.432 82.6373 60.576 75.2533 65.7287 70.6147C70.9687 66.0707 78.2174 64.272 85.3787 64.556C92.4527 64.84 99.2647 67.112 104.941 71.656Z" fill="#B6E147"/>
<path d="M396.373 338.427C402.661 344.58 407.814 351.585 409.386 359.632C410.87 367.679 408.862 376.577 404.495 383.299C400.128 390.02 393.404 394.469 386.33 396.647C379.256 398.824 371.92 398.729 364.584 396.552C357.335 394.469 350.086 390.399 346.069 383.772C342.052 377.24 341.178 368.152 342.139 359.064C343.187 349.976 346.069 340.793 352.008 334.64C357.859 328.487 366.68 325.363 374.714 326.309C382.836 327.256 390.172 332.368 396.373 338.427Z" fill="#B6E147"/>
<path d="M81.0122 351.017C87.7369 357.549 92.1909 366.448 94.2869 376.293C96.4702 386.139 96.3829 396.931 92.2782 405.735C88.1736 414.633 80.1389 421.544 70.9689 425.236C61.7116 428.833 51.4062 429.117 42.3236 425.615C33.3282 422.017 25.4682 414.728 21.9749 405.829C18.4816 396.931 19.2676 386.423 21.4509 376.672C23.6342 367.016 27.1276 358.117 33.2409 351.491C39.3542 344.864 48.0002 340.604 56.8209 340.509C65.5542 340.415 74.3749 344.58 81.0122 351.017Z" fill="#B6E147"/>
<path d="M105.204 772.284C109.221 776.544 111.317 782.887 112.627 789.513C114.024 796.14 114.636 803.145 112.103 808.352C109.57 813.559 103.719 816.967 98.0423 818.103C92.3657 819.333 86.689 818.387 81.5363 816.304C76.3837 814.127 71.755 810.813 68.6983 806.08C65.6417 801.252 64.2443 795.004 65.0303 789.04C65.9037 783.076 68.9603 777.396 73.327 773.136C77.6937 768.876 83.3703 765.941 89.2217 765.752C95.073 765.468 101.186 767.929 105.204 772.284Z" fill="#B6E147"/>
<path d="M383.36 29.624C390.783 36.8187 396.198 46.096 397.857 56.1307C399.604 66.26 397.595 77.1467 393.229 87.6547C388.862 98.1627 382.225 108.292 373.229 111.984C364.234 115.771 352.881 112.931 343.449 107.819C334.017 102.707 326.331 95.3227 321.441 86.2347C316.463 77.052 314.279 66.1653 315.851 55.9413C317.423 45.6227 322.838 36.0613 330.349 28.8667C337.859 21.7667 347.466 17.0333 356.985 17.2227C366.592 17.412 375.937 22.4293 383.36 29.624Z" fill="#B6E147"/>
<path d="M259.172 135.083C267.382 141.804 274.543 150.608 275.416 160.075C276.202 169.541 270.7 179.576 265.111 188.948C259.522 198.32 253.758 207.124 245.374 212.141C237.077 217.159 226.16 218.579 217.252 214.697C208.257 210.816 201.445 201.728 197.864 191.977C194.371 182.227 194.109 171.908 196.292 162.631C198.388 153.448 202.93 145.212 209.305 138.112C215.768 131.012 223.977 125.048 232.798 124.385C241.618 123.723 250.876 128.267 259.172 135.083Z" fill="#B6E147"/>
<path d="M171.402 444.832C176.817 450.985 179 460.263 180.66 469.635C182.319 479.101 183.454 488.663 180.136 496.047C176.817 503.431 169.044 508.637 160.748 511.572C152.451 514.507 143.63 515.359 136.731 512.045C129.744 508.732 124.766 501.159 120.225 493.112C115.771 485.16 111.928 476.545 112.627 468.309C113.326 460.073 118.74 452.121 125.465 446.252C132.19 440.288 140.312 436.407 148.783 436.028C157.167 435.649 165.9 438.679 171.402 444.832Z" fill="#B6E147"/>
<path d="M399.167 538.173C402.923 542.433 405.281 547.545 406.416 553.225C407.551 558.811 407.377 564.869 405.019 569.697C402.661 574.62 398.032 578.217 392.879 580.3C387.727 582.383 381.963 582.951 376.723 581.152C371.483 579.448 366.767 575.567 363.623 570.265C360.391 564.964 358.819 558.337 360.217 552.752C361.527 547.072 365.806 542.433 370.435 538.363C375.151 534.387 380.129 530.979 385.194 530.884C390.259 530.789 395.412 534.008 399.167 538.173Z" fill="#B6E147"/>
<path d="M102.846 620.533C110.793 628.485 116.033 639.372 116.906 650.259C117.78 661.145 114.461 672.032 109.221 681.783C103.981 691.533 96.9069 700.053 87.8243 704.692C78.6543 709.236 67.3883 709.899 56.5589 706.68C45.8169 703.556 35.4243 696.551 29.3983 686.327C23.3723 676.103 21.7129 662.66 24.8569 651.3C28.0883 639.94 36.1229 630.757 44.9436 622.995C53.8516 615.232 63.5456 608.889 73.8509 608.227C84.0689 607.564 94.8983 612.581 102.846 620.533Z" fill="#B6E147"/>
<path d="M90.2694 217.348C95.2474 221.04 100.051 225.773 101.186 231.359C102.321 237.039 99.7887 243.476 96.47 249.44C93.1514 255.309 89.0467 260.516 83.894 262.693C78.654 264.871 72.366 263.924 67.0387 261.273C61.7114 258.623 57.432 254.268 54.6374 248.967C51.8427 243.665 50.5327 237.512 51.4934 231.643C52.3667 225.773 55.4234 220.283 59.7027 216.401C64.0694 212.52 69.5714 210.248 74.8987 210.532C80.226 210.721 85.2914 213.561 90.2694 217.348Z" fill="#B6E147"/>
<path d="M258.386 337.48C263.801 342.781 266.77 350.828 267.469 358.685C268.255 366.637 266.858 374.495 263.277 381.027C259.784 387.464 254.107 392.576 247.557 395.511C240.92 398.445 233.322 399.203 225.811 397.309C218.213 395.416 210.702 390.872 207.034 383.961C203.366 377.051 203.541 367.773 205.026 358.78C206.51 349.692 209.305 340.888 214.982 335.681C220.571 330.38 229.042 328.676 237.164 329.055C245.286 329.528 253.059 332.179 258.386 337.48Z" fill="#B6E147"/>
<path d="M450.083 207.219C454.973 211.573 459.689 216.307 460.563 221.797C461.436 227.193 458.379 233.347 454.799 238.459C451.305 243.571 447.288 247.641 442.223 250.292C437.157 253.037 431.131 254.457 425.455 253.037C419.778 251.523 414.538 247.168 412.267 241.488C410.084 235.903 410.87 229.087 412.18 222.649C413.49 216.117 415.324 210.059 419.254 205.42C423.097 200.876 429.035 197.847 434.537 198.32C440.039 198.793 445.105 202.864 450.083 207.219Z" fill="#B6E147"/>
<path d="M307.118 693.427C312.533 698.728 314.891 707.627 315.328 716.147C315.852 724.572 314.454 732.524 311.31 740.476C308.254 748.428 303.363 756.285 296.551 759.693C289.652 763.196 280.656 762.249 273.495 758.368C266.334 754.487 260.919 747.765 257.513 740.287C254.107 732.808 252.797 724.667 253.758 716.525C254.718 708.479 258.037 700.527 263.539 695.225C269.041 689.924 276.901 687.273 285.023 686.895C293.145 686.421 301.616 688.125 307.118 693.427Z" fill="#B6E147"/>
<path d="M294.717 470.203C302.577 477.871 309.04 486.959 311.747 497.561C314.367 508.164 313.232 520.376 307.992 529.843C302.752 539.404 293.494 546.125 283.626 549.06C273.757 551.9 263.452 550.859 254.369 546.883C245.199 542.907 237.426 535.996 232.099 527.097C226.772 518.104 223.89 507.123 225.374 496.615C226.772 486.107 232.448 476.261 240.308 468.593C248.081 460.925 258.124 455.435 267.731 455.908C277.425 456.287 286.77 462.535 294.717 470.203Z" fill="#B6E147"/>
<path d="M435.411 667.961C442.31 673.452 447.987 681.404 449.559 690.208C451.218 699.107 448.86 708.952 443.882 715.957C438.904 722.963 431.306 727.128 423.184 730.536C415.15 733.849 406.678 736.405 399.168 734.228C391.657 732.051 385.02 725.14 380.828 716.999C376.636 708.763 374.802 699.296 376.985 691.249C379.168 683.297 385.282 676.765 391.744 671.275C398.294 665.784 405.281 661.145 412.792 660.388C420.39 659.536 428.512 662.565 435.411 667.961Z" fill="#B6E147"/>
<path d="M655.176 864.395C662.686 872.347 666.878 883.612 669.324 895.635C671.769 907.657 672.468 920.532 668.101 931.513C663.734 942.589 654.39 951.867 643.735 954.991C633.08 958.115 621.29 955.085 609.588 950.825C597.972 946.471 586.532 940.885 580.68 931.135C574.829 921.384 574.654 907.563 577.536 895.161C580.418 882.76 586.532 871.779 595.003 864.016C603.562 856.159 614.653 851.52 625.657 851.615C636.661 851.615 647.578 856.348 655.176 864.395Z" fill="#B6E147"/>
<path d="M847.397 786.768C853.772 793.111 856.217 803.997 857.353 814.505C858.488 825.108 858.226 835.427 854.558 844.609C850.803 853.792 843.641 862.028 834.646 866.477C825.563 870.927 814.559 871.589 804.691 868.087C794.909 864.584 786.263 856.727 781.285 846.976C776.395 837.131 775.172 825.203 778.054 815.263C780.936 805.323 787.923 797.276 795.695 791.217C803.468 785.253 811.939 781.088 821.284 779.952C830.716 778.816 841.021 780.52 847.397 786.768Z" fill="#B6E147"/>
<path d="M666.005 587.021C672.992 591.944 679.542 598.855 681.376 607.185C683.21 615.421 680.24 625.077 675.699 633.976C671.158 642.78 665.132 650.827 657.097 654.803C649.15 658.684 639.106 658.495 630.548 654.708C622.076 651.016 615.002 643.727 610.636 635.017C606.269 626.403 604.697 616.273 606.269 606.712C607.841 597.245 612.557 588.347 619.369 583.329C626.181 578.407 635.089 577.365 643.298 578.217C651.508 579.164 658.931 582.099 666.005 587.021Z" fill="#B6E147"/>
<path d="M546.358 71.656C551.948 76.2 556.227 82.9213 557.1 90.0213C557.974 97.1213 555.354 104.695 551.511 111.132C547.756 117.569 542.778 122.965 536.752 125.332C530.813 127.699 523.739 127.131 517.364 124.575C510.901 122.113 505.137 117.759 501.644 111.7C498.15 105.641 496.928 97.8787 497.888 90.3053C498.849 82.6373 501.993 75.2533 507.146 70.6147C512.386 66.0707 519.634 64.272 526.796 64.556C533.87 64.84 540.682 67.112 546.358 71.656Z" fill="#B6E147"/>
<path d="M837.79 338.427C844.078 344.58 849.231 351.585 850.803 359.632C852.287 367.679 850.279 376.577 845.912 383.299C841.545 390.02 834.821 394.469 827.747 396.647C820.673 398.824 813.337 398.729 806.001 396.552C798.752 394.469 791.503 390.399 787.486 383.772C783.469 377.24 782.595 368.152 783.556 359.064C784.604 349.976 787.486 340.793 793.425 334.64C799.276 328.487 808.097 325.363 816.131 326.309C824.253 327.256 831.589 332.368 837.79 338.427Z" fill="#B6E147"/>
<path d="M522.429 351.017C529.154 357.549 533.608 366.448 535.704 376.293C537.887 386.139 537.8 396.931 533.695 405.735C529.591 414.633 521.556 421.544 512.386 425.236C503.129 428.833 492.823 429.117 483.741 425.615C474.745 422.017 466.885 414.728 463.392 405.829C459.899 396.931 460.685 386.423 462.868 376.672C465.051 367.016 468.545 358.117 474.658 351.491C480.771 344.864 489.417 340.604 498.238 340.509C506.971 340.415 515.792 344.58 522.429 351.017Z" fill="#B6E147"/>
<path d="M546.621 772.284C550.638 776.544 552.734 782.887 554.044 789.513C555.441 796.14 556.053 803.145 553.52 808.352C550.987 813.559 545.136 816.967 539.459 818.103C533.783 819.333 528.106 818.387 522.953 816.304C517.801 814.127 513.172 810.813 510.115 806.08C507.059 801.252 505.661 795.004 506.447 789.04C507.321 783.076 510.377 777.396 514.744 773.136C519.111 768.876 524.787 765.941 530.639 765.752C536.49 765.468 542.603 767.929 546.621 772.284Z" fill="#B6E147"/>
<path d="M824.777 29.624C832.201 36.8187 837.615 46.096 839.275 56.1307C841.021 66.26 839.013 77.1467 834.646 87.6547C830.279 98.1627 823.642 108.292 814.647 111.984C805.651 115.771 794.298 112.931 784.866 107.819C775.434 102.707 767.749 95.3227 762.858 86.2347C757.88 77.052 755.697 66.1653 757.269 55.9413C758.841 45.6227 764.255 36.0613 771.766 28.8667C779.277 21.7667 788.883 17.0333 798.403 17.2227C808.009 17.412 817.354 22.4293 824.777 29.624Z" fill="#B6E147"/>
<path d="M700.589 135.083C708.799 141.804 715.96 150.608 716.833 160.075C717.619 169.541 712.117 179.576 706.528 188.948C700.939 198.32 695.175 207.124 686.791 212.141C678.494 217.159 667.577 218.579 658.669 214.697C649.674 210.816 642.862 201.728 639.281 191.977C635.788 182.227 635.526 171.908 637.709 162.631C639.805 153.448 644.347 145.212 650.722 138.112C657.185 131.012 665.394 125.048 674.215 124.385C683.035 123.723 692.293 128.267 700.589 135.083Z" fill="#B6E147"/>
<path d="M612.819 444.832C618.234 450.985 620.417 460.263 622.077 469.635C623.736 479.101 624.871 488.663 621.553 496.047C618.234 503.431 610.461 508.637 602.165 511.572C593.868 514.507 585.047 515.359 578.148 512.045C571.161 508.732 566.183 501.159 561.642 493.112C557.188 485.16 553.345 476.545 554.044 468.309C554.743 460.073 560.157 452.121 566.882 446.252C573.607 440.288 581.729 436.407 590.2 436.028C598.584 435.649 607.317 438.679 612.819 444.832Z" fill="#B6E147"/>
<path d="M840.584 538.173C844.34 542.433 846.698 547.545 847.833 553.225C848.968 558.811 848.794 564.869 846.436 569.697C844.078 574.62 839.449 578.217 834.296 580.3C829.144 582.383 823.38 582.951 818.14 581.152C812.9 579.448 808.184 575.567 805.04 570.265C801.808 564.964 800.236 558.337 801.634 552.752C802.944 547.072 807.223 542.433 811.852 538.363C816.568 534.387 821.546 530.979 826.611 530.884C831.676 530.789 836.829 534.008 840.584 538.173Z" fill="#B6E147"/>
<path d="M544.263 620.533C552.21 628.485 557.45 639.372 558.323 650.259C559.197 661.145 555.878 672.032 550.638 681.783C545.398 691.533 538.324 700.053 529.241 704.692C520.071 709.236 508.805 709.899 497.976 706.68C487.234 703.556 476.841 696.551 470.815 686.327C464.789 676.103 463.13 662.66 466.274 651.3C469.505 639.94 477.54 630.757 486.361 622.995C495.269 615.232 504.963 608.889 515.268 608.227C525.486 607.564 536.315 612.581 544.263 620.533Z" fill="#B6E147"/>
<path d="M531.686 217.348C536.664 221.04 541.468 225.773 542.603 231.359C543.738 237.039 541.206 243.476 537.887 249.44C534.568 255.309 530.464 260.516 525.311 262.693C520.071 264.871 513.783 263.924 508.456 261.273C503.128 258.623 498.849 254.268 496.054 248.967C493.26 243.665 491.95 237.512 492.91 231.643C493.784 225.773 496.84 220.283 501.12 216.401C505.486 212.52 510.988 210.248 516.316 210.532C521.643 210.721 526.708 213.561 531.686 217.348Z" fill="#B6E147"/>
<path d="M699.803 337.48C705.218 342.781 708.187 350.828 708.886 358.685C709.672 366.637 708.274 374.495 704.694 381.027C701.2 387.464 695.524 392.576 688.974 395.511C682.336 398.445 674.738 399.203 667.228 397.309C659.63 395.416 652.119 390.872 648.451 383.961C644.783 377.051 644.958 367.773 646.442 358.78C647.927 349.692 650.722 340.888 656.398 335.681C661.988 330.38 670.459 328.676 678.581 329.055C686.703 329.528 694.476 332.179 699.803 337.48Z" fill="#B6E147"/>
<path d="M891.5 207.219C896.391 211.573 901.107 216.307 901.98 221.797C902.853 227.193 899.797 233.347 896.216 238.459C892.723 243.571 888.705 247.641 883.64 250.292C878.575 253.037 872.549 254.457 866.872 253.037C861.195 251.523 855.955 247.168 853.685 241.488C851.501 235.903 852.287 229.087 853.597 222.649C854.907 216.117 856.741 210.059 860.671 205.42C864.514 200.876 870.453 197.847 875.955 198.32C881.457 198.793 886.522 202.864 891.5 207.219Z" fill="#B6E147"/>
<path d="M748.535 693.427C753.95 698.728 756.308 707.627 756.745 716.147C757.269 724.572 755.871 732.524 752.727 740.476C749.671 748.428 744.78 756.285 737.968 759.693C731.069 763.196 722.073 762.249 714.912 758.368C707.751 754.487 702.336 747.765 698.93 740.287C695.524 732.808 694.214 724.667 695.175 716.525C696.135 708.479 699.454 700.527 704.956 695.225C710.458 689.924 718.318 687.273 726.44 686.895C734.562 686.421 743.033 688.125 748.535 693.427Z" fill="#B6E147"/>
<path d="M736.134 470.203C743.994 477.871 750.457 486.959 753.164 497.561C755.784 508.164 754.649 520.376 749.409 529.843C744.169 539.404 734.911 546.125 725.043 549.06C715.174 551.9 704.869 550.859 695.786 546.883C686.616 542.907 678.843 535.996 673.516 527.097C668.189 518.104 665.307 507.123 666.791 496.615C668.189 486.107 673.865 476.261 681.725 468.593C689.498 460.925 699.541 455.435 709.148 455.908C718.842 456.287 728.187 462.535 736.134 470.203Z" fill="#B6E147"/>
<path d="M876.828 667.961C883.727 673.452 889.404 681.404 890.976 690.208C892.635 699.107 890.277 708.952 885.299 715.957C880.321 722.963 872.723 727.128 864.601 730.536C856.567 733.849 848.095 736.405 840.585 734.228C833.074 732.051 826.437 725.14 822.245 716.999C818.053 708.763 816.219 699.296 818.402 691.249C820.585 683.297 826.699 676.765 833.161 671.275C839.711 665.784 846.698 661.145 854.209 660.388C861.807 659.536 869.929 662.565 876.828 667.961Z" fill="#B6E147"/>
<path d="M1096.18 864.395C1103.69 872.347 1107.88 883.612 1110.32 895.635C1112.77 907.657 1113.47 920.532 1109.1 931.513C1104.73 942.589 1095.39 951.867 1084.74 954.991C1074.08 958.115 1062.29 955.085 1050.59 950.825C1038.97 946.471 1027.53 940.885 1021.68 931.135C1015.83 921.384 1015.65 907.563 1018.54 895.161C1021.42 882.76 1027.53 871.779 1036 864.016C1044.56 856.159 1055.65 851.52 1066.66 851.615C1077.66 851.615 1088.58 856.348 1096.18 864.395Z" fill="#B6E147"/>
<path d="M1288.4 786.768C1294.77 793.111 1297.22 803.997 1298.35 814.505C1299.49 825.108 1299.23 835.427 1295.56 844.609C1291.8 853.792 1284.64 862.028 1275.65 866.477C1266.56 870.927 1255.56 871.589 1245.69 868.087C1235.91 864.584 1227.26 856.727 1222.29 846.976C1217.39 837.131 1216.17 825.203 1219.05 815.263C1221.94 805.323 1228.92 797.276 1236.7 791.217C1244.47 785.253 1252.94 781.088 1262.28 779.952C1271.72 778.816 1282.02 780.52 1288.4 786.768Z" fill="#B6E147"/>
<path d="M1107.01 587.021C1113.99 591.944 1120.54 598.855 1122.38 607.185C1124.21 615.421 1121.24 625.077 1116.7 633.976C1112.16 642.78 1106.13 650.827 1098.1 654.803C1090.15 658.684 1080.11 658.495 1071.55 654.708C1063.08 651.016 1056 643.727 1051.64 635.017C1047.27 626.403 1045.7 616.273 1047.27 606.712C1048.84 597.245 1053.56 588.347 1060.37 583.329C1067.18 578.407 1076.09 577.365 1084.3 578.217C1092.51 579.164 1099.93 582.099 1107.01 587.021Z" fill="#B6E147"/>
<path d="M987.359 71.656C992.948 76.2 997.227 82.9213 998.101 90.0213C998.974 97.1213 996.354 104.695 992.511 111.132C988.756 117.569 983.778 122.965 977.752 125.332C971.813 127.699 964.739 127.131 958.364 124.575C951.901 122.113 946.137 117.759 942.644 111.7C939.151 105.641 937.928 97.8787 938.889 90.3053C939.849 82.6373 942.993 75.2533 948.146 70.6147C953.386 66.0707 960.635 64.272 967.796 64.556C974.87 64.84 981.682 67.112 987.359 71.656Z" fill="#B6E147"/>
<path d="M1278.79 338.427C1285.08 344.58 1290.23 351.585 1291.8 359.632C1293.29 367.679 1291.28 376.577 1286.91 383.299C1282.55 390.02 1275.82 394.469 1268.75 396.647C1261.67 398.824 1254.34 398.729 1247 396.552C1239.75 394.469 1232.5 390.399 1228.49 383.772C1224.47 377.24 1223.6 368.152 1224.56 359.064C1225.6 349.976 1228.49 340.793 1234.42 334.64C1240.28 328.487 1249.1 325.363 1257.13 326.309C1265.25 327.256 1272.59 332.368 1278.79 338.427Z" fill="#B6E147"/>
<path d="M963.429 351.017C970.154 357.549 974.608 366.448 976.704 376.293C978.887 386.139 978.8 396.931 974.695 405.735C970.591 414.633 962.556 421.544 953.386 425.236C944.129 428.833 933.823 429.117 924.741 425.615C915.745 422.017 907.885 414.728 904.392 405.829C900.899 396.931 901.685 386.423 903.868 376.672C906.051 367.016 909.545 358.117 915.658 351.491C921.771 344.864 930.417 340.604 939.238 340.509C947.971 340.415 956.792 344.58 963.429 351.017Z" fill="#B6E147"/>
<path d="M987.621 772.284C991.638 776.544 993.734 782.887 995.044 789.513C996.441 796.14 997.053 803.145 994.52 808.352C991.987 813.559 986.136 816.967 980.459 818.103C974.783 819.333 969.106 818.387 963.953 816.304C958.801 814.127 954.172 810.813 951.115 806.08C948.059 801.252 946.661 795.004 947.447 789.04C948.321 783.076 951.377 777.396 955.744 773.136C960.111 768.876 965.787 765.941 971.639 765.752C977.49 765.468 983.603 767.929 987.621 772.284Z" fill="#B6E147"/>
<path d="M1265.78 29.624C1273.2 36.8187 1278.62 46.096 1280.27 56.1307C1282.02 66.26 1280.01 77.1467 1275.65 87.6547C1271.28 98.1627 1264.64 108.292 1255.65 111.984C1246.65 115.771 1235.3 112.931 1225.87 107.819C1216.43 102.707 1208.75 95.3227 1203.86 86.2347C1198.88 77.052 1196.7 66.1653 1198.27 55.9413C1199.84 45.6227 1205.26 36.0613 1212.77 28.8667C1220.28 21.7667 1229.88 17.0333 1239.4 17.2227C1249.01 17.412 1258.35 22.4293 1265.78 29.624Z" fill="#B6E147"/>
<path d="M1141.59 135.083C1149.8 141.804 1156.96 150.608 1157.83 160.075C1158.62 169.541 1153.12 179.576 1147.53 188.948C1141.94 198.32 1136.17 207.124 1127.79 212.141C1119.49 217.159 1108.58 218.579 1099.67 214.697C1090.67 210.816 1083.86 201.728 1080.28 191.977C1076.79 182.227 1076.53 171.908 1078.71 162.631C1080.81 153.448 1085.35 145.212 1091.72 138.112C1098.18 131.012 1106.39 125.048 1115.21 124.385C1124.04 123.723 1133.29 128.267 1141.59 135.083Z" fill="#B6E147"/>
<path d="M1053.82 444.832C1059.23 450.985 1061.42 460.263 1063.08 469.635C1064.74 479.101 1065.87 488.663 1062.55 496.047C1059.23 503.431 1051.46 508.637 1043.16 511.572C1034.87 514.507 1026.05 515.359 1019.15 512.045C1012.16 508.732 1007.18 501.159 1002.64 493.112C998.188 485.16 994.345 476.545 995.044 468.309C995.743 460.073 1001.16 452.121 1007.88 446.252C1014.61 440.288 1022.73 436.407 1031.2 436.028C1039.58 435.649 1048.32 438.679 1053.82 444.832Z" fill="#B6E147"/>
<path d="M1281.58 538.173C1285.34 542.433 1287.7 547.545 1288.83 553.225C1289.97 558.811 1289.79 564.869 1287.44 569.697C1285.08 574.62 1280.45 578.217 1275.3 580.3C1270.14 582.383 1264.38 582.951 1259.14 581.152C1253.9 579.448 1249.18 575.567 1246.04 570.265C1242.81 564.964 1241.24 558.337 1242.63 552.752C1243.94 547.072 1248.22 542.433 1252.85 538.363C1257.57 534.387 1262.55 530.979 1267.61 530.884C1272.68 530.789 1277.83 534.008 1281.58 538.173Z" fill="#B6E147"/>
<path d="M985.263 620.533C993.21 628.485 998.45 639.372 999.323 650.259C1000.2 661.145 996.878 672.032 991.638 681.783C986.398 691.533 979.324 700.053 970.241 704.692C961.071 709.236 949.805 709.899 938.976 706.68C928.234 703.556 917.841 696.551 911.815 686.327C905.789 676.103 904.13 662.66 907.274 651.3C910.505 639.94 918.54 630.757 927.361 622.995C936.269 615.232 945.963 608.889 956.268 608.227C966.486 607.564 977.315 612.581 985.263 620.533Z" fill="#B6E147"/>
<path d="M972.687 217.348C977.665 221.04 982.468 225.773 983.603 231.359C984.739 237.039 982.206 243.476 978.887 249.44C975.569 255.309 971.464 260.516 966.311 262.693C961.071 264.871 954.783 263.924 949.456 261.273C944.129 258.623 939.849 254.268 937.055 248.967C934.26 243.665 932.95 237.512 933.911 231.643C934.784 225.773 937.841 220.283 942.12 216.401C946.487 212.52 951.989 210.248 957.316 210.532C962.643 210.721 967.709 213.561 972.687 217.348Z" fill="#B6E147"/>
<path d="M1140.8 337.48C1146.22 342.781 1149.19 350.828 1149.89 358.685C1150.67 366.637 1149.27 374.495 1145.69 381.027C1142.2 387.464 1136.52 392.576 1129.97 395.511C1123.34 398.445 1115.74 399.203 1108.23 397.309C1100.63 395.416 1093.12 390.872 1089.45 383.961C1085.78 377.051 1085.96 367.773 1087.44 358.78C1088.93 349.692 1091.72 340.888 1097.4 335.681C1102.99 330.38 1111.46 328.676 1119.58 329.055C1127.7 329.528 1135.48 332.179 1140.8 337.48Z" fill="#B6E147"/>
<path d="M1332.5 207.219C1337.39 211.573 1342.11 216.307 1342.98 221.797C1343.85 227.193 1340.8 233.347 1337.22 238.459C1333.72 243.571 1329.71 247.641 1324.64 250.292C1319.57 253.037 1313.55 254.457 1307.87 253.037C1302.2 251.523 1296.96 247.168 1294.68 241.488C1292.5 235.903 1293.29 229.087 1294.6 222.649C1295.91 216.117 1297.74 210.059 1301.67 205.42C1305.51 200.876 1311.45 197.847 1316.95 198.32C1322.46 198.793 1327.52 202.864 1332.5 207.219Z" fill="#B6E147"/>
<path d="M1189.54 693.427C1194.95 698.728 1197.31 707.627 1197.74 716.147C1198.27 724.572 1196.87 732.524 1193.73 740.476C1190.67 748.428 1185.78 756.285 1178.97 759.693C1172.07 763.196 1163.07 762.249 1155.91 758.368C1148.75 754.487 1143.34 747.765 1139.93 740.287C1136.52 732.808 1135.21 724.667 1136.17 716.525C1137.14 708.479 1140.45 700.527 1145.96 695.225C1151.46 689.924 1159.32 687.273 1167.44 686.895C1175.56 686.421 1184.03 688.125 1189.54 693.427Z" fill="#B6E147"/>
<path d="M1177.13 470.203C1184.99 477.871 1191.46 486.959 1194.16 497.561C1196.78 508.164 1195.65 520.376 1190.41 529.843C1185.17 539.404 1175.91 546.125 1166.04 549.06C1156.17 551.9 1145.87 550.859 1136.79 546.883C1127.62 542.907 1119.84 535.996 1114.52 527.097C1109.19 518.104 1106.31 507.123 1107.79 496.615C1109.19 486.107 1114.87 476.261 1122.73 468.593C1130.5 460.925 1140.54 455.435 1150.15 455.908C1159.84 456.287 1169.19 462.535 1177.13 470.203Z" fill="#B6E147"/>
<path d="M1317.83 667.961C1324.73 673.452 1330.4 681.404 1331.98 690.208C1333.64 699.107 1331.28 708.952 1326.3 715.957C1321.32 722.963 1313.72 727.128 1305.6 730.536C1297.57 733.849 1289.1 736.405 1281.58 734.228C1274.07 732.051 1267.44 725.14 1263.24 716.999C1259.05 708.763 1257.22 699.296 1259.4 691.249C1261.59 683.297 1267.7 676.765 1274.16 671.275C1280.71 665.784 1287.7 661.145 1295.21 660.388C1302.81 659.536 1310.93 662.565 1317.83 667.961Z" fill="#B6E147"/>
<path d="M1537.18 864.395C1544.69 872.347 1548.88 883.612 1551.32 895.635C1553.77 907.657 1554.47 920.532 1550.1 931.513C1545.73 942.589 1536.39 951.867 1525.74 954.991C1515.08 958.115 1503.29 955.085 1491.59 950.825C1479.97 946.471 1468.53 940.885 1462.68 931.135C1456.83 921.384 1456.65 907.563 1459.54 895.161C1462.42 882.76 1468.53 871.779 1477 864.016C1485.56 856.159 1496.65 851.52 1507.66 851.615C1518.66 851.615 1529.58 856.348 1537.18 864.395Z" fill="#B6E147"/>
<path d="M1729.4 786.768C1735.77 793.111 1738.22 803.997 1739.35 814.505C1740.49 825.108 1740.23 835.427 1736.56 844.609C1732.8 853.792 1725.64 862.028 1716.65 866.477C1707.56 870.927 1696.56 871.589 1686.69 868.087C1676.91 864.584 1668.26 856.727 1663.29 846.976C1658.39 837.131 1657.17 825.203 1660.05 815.263C1662.94 805.323 1669.92 797.276 1677.7 791.217C1685.47 785.253 1693.94 781.088 1703.28 779.952C1712.72 778.816 1723.02 780.52 1729.4 786.768Z" fill="#B6E147"/>
<path d="M1548.01 587.021C1554.99 591.944 1561.54 598.855 1563.38 607.185C1565.21 615.421 1562.24 625.077 1557.7 633.976C1553.16 642.78 1547.13 650.827 1539.1 654.803C1531.15 658.684 1521.11 658.495 1512.55 654.708C1504.08 651.016 1497 643.727 1492.64 635.017C1488.27 626.403 1486.7 616.273 1488.27 606.712C1489.84 597.245 1494.56 588.347 1501.37 583.329C1508.18 578.407 1517.09 577.365 1525.3 578.217C1533.51 579.164 1540.93 582.099 1548.01 587.021Z" fill="#B6E147"/>
<path d="M1428.36 71.656C1433.95 76.2 1438.23 82.9213 1439.1 90.0213C1439.97 97.1213 1437.35 104.695 1433.51 111.132C1429.76 117.569 1424.78 122.965 1418.75 125.332C1412.81 127.699 1405.74 127.131 1399.36 124.575C1392.9 122.113 1387.14 117.759 1383.64 111.7C1380.15 105.641 1378.93 97.8787 1379.89 90.3053C1380.85 82.6373 1383.99 75.2533 1389.15 70.6147C1394.39 66.0707 1401.63 64.272 1408.8 64.556C1415.87 64.84 1422.68 67.112 1428.36 71.656Z" fill="#B6E147"/>
<path d="M1719.79 338.427C1726.08 344.58 1731.23 351.585 1732.8 359.632C1734.29 367.679 1732.28 376.577 1727.91 383.299C1723.55 390.02 1716.82 394.469 1709.75 396.647C1702.67 398.824 1695.34 398.729 1688 396.552C1680.75 394.469 1673.5 390.399 1669.49 383.772C1665.47 377.24 1664.6 368.152 1665.56 359.064C1666.6 349.976 1669.49 340.793 1675.42 334.64C1681.28 328.487 1690.1 325.363 1698.13 326.309C1706.25 327.256 1713.59 332.368 1719.79 338.427Z" fill="#B6E147"/>
<path d="M1404.43 351.017C1411.15 357.549 1415.61 366.448 1417.7 376.293C1419.89 386.139 1419.8 396.931 1415.7 405.735C1411.59 414.633 1403.56 421.544 1394.39 425.236C1385.13 428.833 1374.82 429.117 1365.74 425.615C1356.75 422.017 1348.89 414.728 1345.39 405.829C1341.9 396.931 1342.68 386.423 1344.87 376.672C1347.05 367.016 1350.54 358.117 1356.66 351.491C1362.77 344.864 1371.42 340.604 1380.24 340.509C1388.97 340.415 1397.79 344.58 1404.43 351.017Z" fill="#B6E147"/>
<path d="M1428.62 772.284C1432.64 776.544 1434.73 782.887 1436.04 789.513C1437.44 796.14 1438.05 803.145 1435.52 808.352C1432.99 813.559 1427.14 816.967 1421.46 818.103C1415.78 819.333 1410.11 818.387 1404.95 816.304C1399.8 814.127 1395.17 810.813 1392.12 806.08C1389.06 801.252 1387.66 795.004 1388.45 789.04C1389.32 783.076 1392.38 777.396 1396.74 773.136C1401.11 768.876 1406.79 765.941 1412.64 765.752C1418.49 765.468 1424.6 767.929 1428.62 772.284Z" fill="#B6E147"/>
<path d="M1706.78 29.624C1714.2 36.8187 1719.62 46.096 1721.27 56.1307C1723.02 66.26 1721.01 77.1467 1716.65 87.6547C1712.28 98.1627 1705.64 108.292 1696.65 111.984C1687.65 115.771 1676.3 112.931 1666.87 107.819C1657.43 102.707 1649.75 95.3227 1644.86 86.2347C1639.88 77.052 1637.7 66.1653 1639.27 55.9413C1640.84 45.6227 1646.26 36.0613 1653.77 28.8667C1661.28 21.7667 1670.88 17.0333 1680.4 17.2227C1690.01 17.412 1699.35 22.4293 1706.78 29.624Z" fill="#B6E147"/>
<path d="M1582.59 135.083C1590.8 141.804 1597.96 150.608 1598.83 160.075C1599.62 169.541 1594.12 179.576 1588.53 188.948C1582.94 198.32 1577.17 207.124 1568.79 212.141C1560.49 217.159 1549.58 218.579 1540.67 214.697C1531.67 210.816 1524.86 201.728 1521.28 191.977C1517.79 182.227 1517.53 171.908 1519.71 162.631C1521.81 153.448 1526.35 145.212 1532.72 138.112C1539.18 131.012 1547.39 125.048 1556.21 124.385C1565.04 123.723 1574.29 128.267 1582.59 135.083Z" fill="#B6E147"/>
<path d="M1494.82 444.832C1500.23 450.985 1502.42 460.263 1504.08 469.635C1505.74 479.101 1506.87 488.663 1503.55 496.047C1500.23 503.431 1492.46 508.637 1484.16 511.572C1475.87 514.507 1467.05 515.359 1460.15 512.045C1453.16 508.732 1448.18 501.159 1443.64 493.112C1439.19 485.16 1435.35 476.545 1436.04 468.309C1436.74 460.073 1442.16 452.121 1448.88 446.252C1455.61 440.288 1463.73 436.407 1472.2 436.028C1480.58 435.649 1489.32 438.679 1494.82 444.832Z" fill="#B6E147"/>
<path d="M1722.58 538.173C1726.34 542.433 1728.7 547.545 1729.83 553.225C1730.97 558.811 1730.79 564.869 1728.44 569.697C1726.08 574.62 1721.45 578.217 1716.3 580.3C1711.14 582.383 1705.38 582.951 1700.14 581.152C1694.9 579.448 1690.18 575.567 1687.04 570.265C1683.81 564.964 1682.24 558.337 1683.63 552.752C1684.94 547.072 1689.22 542.433 1693.85 538.363C1698.57 534.387 1703.55 530.979 1708.61 530.884C1713.68 530.789 1718.83 534.008 1722.58 538.173Z" fill="#B6E147"/>
<path d="M1426.26 620.533C1434.21 628.485 1439.45 639.372 1440.32 650.259C1441.2 661.145 1437.88 672.032 1432.64 681.783C1427.4 691.533 1420.32 700.053 1411.24 704.692C1402.07 709.236 1390.81 709.899 1379.98 706.68C1369.23 703.556 1358.84 696.551 1352.82 686.327C1346.79 676.103 1345.13 662.66 1348.27 651.3C1351.51 639.94 1359.54 630.757 1368.36 622.995C1377.27 615.232 1386.96 608.889 1397.27 608.227C1407.49 607.564 1418.32 612.581 1426.26 620.533Z" fill="#B6E147"/>
<path d="M1413.69 217.348C1418.66 221.04 1423.47 225.773 1424.6 231.359C1425.74 237.039 1423.21 243.476 1419.89 249.44C1416.57 255.309 1412.46 260.516 1407.31 262.693C1402.07 264.871 1395.78 263.924 1390.46 261.273C1385.13 258.623 1380.85 254.268 1378.05 248.967C1375.26 243.665 1373.95 237.512 1374.91 231.643C1375.78 225.773 1378.84 220.283 1383.12 216.401C1387.49 212.52 1392.99 210.248 1398.32 210.532C1403.64 210.721 1408.71 213.561 1413.69 217.348Z" fill="#B6E147"/>
<path d="M1581.8 337.48C1587.22 342.781 1590.19 350.828 1590.89 358.685C1591.67 366.637 1590.27 374.495 1586.69 381.027C1583.2 387.464 1577.52 392.576 1570.97 395.511C1564.34 398.445 1556.74 399.203 1549.23 397.309C1541.63 395.416 1534.12 390.872 1530.45 383.961C1526.78 377.051 1526.96 367.773 1528.44 358.78C1529.93 349.692 1532.72 340.888 1538.4 335.681C1543.99 330.38 1552.46 328.676 1560.58 329.055C1568.7 329.528 1576.48 332.179 1581.8 337.48Z" fill="#B6E147"/>
<path d="M1773.5 207.219C1778.39 211.573 1783.11 216.307 1783.98 221.797C1784.85 227.193 1781.8 233.347 1778.22 238.459C1774.72 243.571 1770.71 247.641 1765.64 250.292C1760.57 253.037 1754.55 254.457 1748.87 253.037C1743.2 251.523 1737.96 247.168 1735.68 241.488C1733.5 235.903 1734.29 229.087 1735.6 222.649C1736.91 216.117 1738.74 210.059 1742.67 205.42C1746.51 200.876 1752.45 197.847 1757.95 198.32C1763.46 198.793 1768.52 202.864 1773.5 207.219Z" fill="#B6E147"/>
<path d="M1630.54 693.427C1635.95 698.728 1638.31 707.627 1638.74 716.147C1639.27 724.572 1637.87 732.524 1634.73 740.476C1631.67 748.428 1626.78 756.285 1619.97 759.693C1613.07 763.196 1604.07 762.249 1596.91 758.368C1589.75 754.487 1584.34 747.765 1580.93 740.287C1577.52 732.808 1576.21 724.667 1577.17 716.525C1578.14 708.479 1581.45 700.527 1586.96 695.225C1592.46 689.924 1600.32 687.273 1608.44 686.895C1616.56 686.421 1625.03 688.125 1630.54 693.427Z" fill="#B6E147"/>
<path d="M1618.13 470.203C1625.99 477.871 1632.46 486.959 1635.16 497.561C1637.78 508.164 1636.65 520.376 1631.41 529.843C1626.17 539.404 1616.91 546.125 1607.04 549.06C1597.17 551.9 1586.87 550.859 1577.79 546.883C1568.62 542.907 1560.84 535.996 1555.52 527.097C1550.19 518.104 1547.31 507.123 1548.79 496.615C1550.19 486.107 1555.87 476.261 1563.73 468.593C1571.5 460.925 1581.54 455.435 1591.15 455.908C1600.84 456.287 1610.19 462.535 1618.13 470.203Z" fill="#B6E147"/>
<path d="M1758.83 667.961C1765.73 673.452 1771.4 681.404 1772.98 690.208C1774.64 699.107 1772.28 708.952 1767.3 715.957C1762.32 722.963 1754.72 727.128 1746.6 730.536C1738.57 733.849 1730.1 736.405 1722.58 734.228C1715.07 732.051 1708.44 725.14 1704.24 716.999C1700.05 708.763 1698.22 699.296 1700.4 691.249C1702.59 683.297 1708.7 676.765 1715.16 671.275C1721.71 665.784 1728.7 661.145 1736.21 660.388C1743.81 659.536 1751.93 662.565 1758.83 667.961Z" fill="#B6E147"/>
</g>
<defs>
<filter id="filter0_f_405_1112" x="0" y="0" width="1804" height="976" filterUnits="userSpaceOnUse" color-interpolation-filters="sRGB">
<feFlood flood-opacity="0" result="BackgroundImageFix"/>
<feBlend mode="normal" in="SourceGraphic" in2="BackgroundImageFix" result="shape"/>
<feGaussianBlur stdDeviation="10" result="effect1_foregroundBlur_405_1112"/>
</filter>
<clipPath id="clip0_405_1112">
<rect width="1764" height="936" fill="white" transform="translate(20 20)"/>
</clipPath>
</defs>
</svg>
