<svg width="28" height="28" viewBox="0 0 28 28" fill="none" xmlns="http://www.w3.org/2000/svg">
<g clip-path="url(#clip0_112_2897)">
<mask id="mask0_112_2897" style="mask-type:luminance" maskUnits="userSpaceOnUse" x="0" y="0" width="28" height="28">
<path d="M0 0H28V28H0V0Z" fill="white"/>
</mask>
<g mask="url(#mask0_112_2897)">
<path d="M11.6107 11.2269L13.4295 7.37102C13.4785 7.26062 13.5585 7.1668 13.6598 7.10096C13.761 7.03511 13.8792 7.00006 14 7.00006C14.1208 7.00006 14.239 7.03511 14.3403 7.10096C14.4415 7.1668 14.5215 7.26062 14.5705 7.37102L16.3893 11.2269L20.4552 11.8487C20.9767 11.928 21.1843 12.6 20.8075 12.985L17.8652 15.9834L18.5593 20.2195C18.6492 20.7644 18.1032 21.1785 17.6365 20.9219L14 18.921L10.3635 20.9219C9.89683 21.1785 9.35083 20.7644 9.44067 20.2195L10.1348 15.9845L7.1925 12.985C6.81567 12.6 7.02333 11.928 7.54483 11.8487L11.6107 11.2269ZM25.6667 14H26.8333H25.6667ZM14 2.33335V1.16669V2.33335ZM14 26.8334V25.6667V26.8334ZM23.3333 23.3334L22.1667 22.1667L23.3333 23.3334ZM23.3333 4.66669L22.1667 5.83335L23.3333 4.66669ZM4.66667 23.3334L5.83333 22.1667L4.66667 23.3334ZM4.66667 4.66669L5.83333 5.83335L4.66667 4.66669ZM1.16667 14H2.33333H1.16667Z" fill="#6E5AF6"/>
<path d="M25.6667 14H26.8333M14 2.33335V1.16669M14 26.8334V25.6667M23.3333 23.3334L22.1667 22.1667M23.3333 4.66669L22.1667 5.83335M4.66667 23.3334L5.83333 22.1667M4.66667 4.66669L5.83333 5.83335M1.16667 14H2.33333M11.6107 11.2269L13.4295 7.37102C13.4785 7.26062 13.5585 7.1668 13.6598 7.10095C13.761 7.03511 13.8792 7.00006 14 7.00006C14.1208 7.00006 14.239 7.03511 14.3403 7.10095C14.4415 7.1668 14.5215 7.26062 14.5705 7.37102L16.3893 11.2269L20.4552 11.8487C20.9767 11.928 21.1843 12.6 20.8075 12.985L17.8652 15.9834L18.5593 20.2195C18.6492 20.7644 18.1032 21.1785 17.6365 20.9219L14 18.921L10.3635 20.9219C9.89683 21.1785 9.35083 20.7644 9.44067 20.2195L10.1348 15.9845L7.1925 12.985C6.81567 12.6 7.02333 11.928 7.54483 11.8487L11.6107 11.2269Z" stroke="#6E5AF6" stroke-width="1.75" stroke-linecap="round" stroke-linejoin="round"/>
</g>
</g>
<defs>
<clipPath id="clip0_112_2897">
<rect width="28" height="28" fill="white"/>
</clipPath>
</defs>
</svg>
