<svg width="14" height="14" viewBox="0 0 14 14" fill="none" xmlns="http://www.w3.org/2000/svg">
<g clip-path="url(#clip0_91_1531)">
<path d="M7.47542 1.75234C7.43131 1.66401 7.36346 1.58972 7.27949 1.5378C7.19551 1.48588 7.09874 1.45837 7.00001 1.45837C6.90128 1.45837 6.8045 1.48588 6.72053 1.5378C6.63655 1.58972 6.5687 1.66401 6.52459 1.75234L6.23526 2.33451M7.00001 10.8955L6.08301 11.375M3.30809 11.2986L3.20017 11.9239C3.12609 12.355 3.58109 12.6834 3.97017 12.4798L4.46426 12.2214M3.64759 9.33334L3.77884 8.57034L3.37342 8.17776M2.15776 7.00001L1.32767 6.19617C1.25674 6.12761 1.20651 6.04048 1.18272 5.94473C1.15893 5.84898 1.16254 5.74847 1.19313 5.65468C1.22373 5.56089 1.28008 5.47758 1.35575 5.41428C1.43142 5.35098 1.52337 5.31022 1.62109 5.29667L2.26859 5.20276M4.08334 4.93909L5.00909 4.80434L5.47809 3.86051" stroke="#EF4444" stroke-linecap="round" stroke-linejoin="round"/>
<path d="M8.99092 4.80433L7.47542 1.75233C7.43196 1.66348 7.36427 1.58873 7.28014 1.53671C7.19602 1.48469 7.0989 1.45752 7 1.45833V10.8955L10.0304 12.4798C10.4189 12.6834 10.8739 12.355 10.7998 11.9239L10.2212 8.56975L12.6723 6.19558C12.7429 6.12697 12.7929 6.03992 12.8164 5.94435C12.84 5.84877 12.8363 5.74849 12.8058 5.65492C12.7752 5.56134 12.719 5.47821 12.6435 5.41498C12.5681 5.35176 12.4764 5.31097 12.3789 5.29725L8.99092 4.80433Z" stroke="#EF4444" stroke-linecap="round" stroke-linejoin="round"/>
</g>
<defs>
<clipPath id="clip0_91_1531">
<rect width="14" height="14" fill="white"/>
</clipPath>
</defs>
</svg>
