<svg width="14" height="14" viewBox="0 0 14 14" fill="none" xmlns="http://www.w3.org/2000/svg">
<g clip-path="url(#clip0_550_1866)">
<path d="M5.00906 4.80434L6.52456 1.75234C6.56867 1.66401 6.63652 1.58972 6.7205 1.5378C6.80447 1.48588 6.90125 1.45837 6.99998 1.45837C7.09871 1.45837 7.19548 1.48588 7.27946 1.5378C7.36343 1.58972 7.43128 1.66401 7.47539 1.75234L8.99089 4.80434L12.3789 5.29667C12.4766 5.31022 12.5686 5.35098 12.6442 5.41428C12.7199 5.47758 12.7763 5.56089 12.8069 5.65468C12.8374 5.74847 12.8411 5.84898 12.8173 5.94473C12.7935 6.04048 12.7432 6.12761 12.6723 6.19617L10.2211 8.57034L10.7998 11.9245C10.8739 12.355 10.4189 12.6828 10.0298 12.4798L6.99998 10.8955L3.96956 12.4798C3.58106 12.6834 3.12606 12.355 3.20014 11.9239L3.77881 8.56976L1.32764 6.19559C1.25705 6.12698 1.20712 6.03993 1.18354 5.94436C1.15995 5.84878 1.16365 5.7485 1.19422 5.65492C1.22478 5.56135 1.28099 5.47822 1.35644 5.41499C1.4319 5.35177 1.52358 5.31098 1.62106 5.29726L5.00906 4.80434Z" stroke="#C5C5C7" stroke-width="1.5" stroke-linecap="round" stroke-linejoin="round"/>
</g>
<defs>
<clipPath id="clip0_550_1866">
<rect width="14" height="14" fill="white"/>
</clipPath>
</defs>
</svg>
