<svg width="14" height="14" viewBox="0 0 14 14" fill="none" xmlns="http://www.w3.org/2000/svg">
<g clip-path="url(#clip0_91_1373)">
<path d="M5.00909 4.80434L6.52459 1.75234C6.56871 1.66401 6.63655 1.58972 6.72053 1.5378C6.8045 1.48588 6.90128 1.45837 7.00001 1.45837C7.09874 1.45837 7.19551 1.48588 7.27949 1.5378C7.36346 1.58972 7.43131 1.66401 7.47542 1.75234L8.99092 4.80434L12.3789 5.29667C12.4766 5.31022 12.5686 5.35098 12.6443 5.41428C12.7199 5.47758 12.7763 5.56089 12.8069 5.65468C12.8375 5.74847 12.8411 5.84898 12.8173 5.94473C12.7935 6.04048 12.7433 6.12761 12.6723 6.19617L10.2212 8.57034L10.7998 11.9245C10.8739 12.355 10.4189 12.6828 10.0298 12.4798L7.00001 10.8955L3.96959 12.4798C3.58109 12.6834 3.12609 12.355 3.20017 11.9239L3.77884 8.56976L1.32767 6.19559C1.25708 6.12698 1.20716 6.03993 1.18357 5.94436C1.15998 5.84878 1.16368 5.7485 1.19425 5.65492C1.22481 5.56135 1.28102 5.47822 1.35647 5.41499C1.43193 5.35177 1.52361 5.31098 1.62109 5.29726L5.00909 4.80434Z" stroke="#F5C20B" stroke-width="1.5" stroke-linecap="round" stroke-linejoin="round"/>
</g>
<defs>
<clipPath id="clip0_91_1373">
<rect width="14" height="14" fill="white"/>
</clipPath>
</defs>
</svg>
