<svg width="28" height="28" viewBox="0 0 28 28" fill="none" xmlns="http://www.w3.org/2000/svg">
<path d="M10.5 7H23.3333M10.5 14H23.3333M10.5 21H23.3333" stroke="#8A8A8E" stroke-width="1.75" stroke-linecap="round" stroke-linejoin="round"/>
<path d="M5.37173 6.2158L5.91298 5.1258C5.92874 5.09426 5.95297 5.06772 5.98296 5.04918C6.01295 5.03064 6.04751 5.02081 6.08277 5.02081C6.11803 5.02081 6.1526 5.03064 6.18259 5.04918C6.21258 5.06772 6.23681 5.09426 6.25256 5.1258L6.79381 6.2158L8.00381 6.39163C8.03872 6.39647 8.07155 6.41103 8.09858 6.43364C8.1256 6.45624 8.14573 6.486 8.15666 6.51949C8.16758 6.55299 8.16887 6.58889 8.16038 6.62308C8.15188 6.65728 8.13394 6.6884 8.10861 6.71288L7.23319 7.5608L7.43986 8.75872C7.46631 8.91247 7.30381 9.02955 7.16486 8.95705L6.08277 8.39122L5.00048 8.95705C4.86173 9.02976 4.69923 8.91247 4.72569 8.75851L4.93236 7.56059L4.05694 6.71268C4.03173 6.68817 4.0139 6.65708 4.00547 6.62295C3.99705 6.58882 3.99837 6.553 4.00929 6.51958C4.0202 6.48616 4.04028 6.45647 4.06722 6.43389C4.09417 6.41131 4.12692 6.39674 4.16173 6.39184L5.37173 6.2158Z" fill="#8A8A8E" stroke="#8A8A8E" stroke-width="0.5" stroke-linecap="round" stroke-linejoin="round"/>
<path d="M5.37173 13.2158L5.91298 12.1258C5.92874 12.0943 5.95297 12.0677 5.98296 12.0492C6.01295 12.0306 6.04751 12.0208 6.08277 12.0208C6.11803 12.0208 6.1526 12.0306 6.18259 12.0492C6.21258 12.0677 6.23681 12.0943 6.25256 12.1258L6.79381 13.2158L8.00381 13.3916C8.03872 13.3965 8.07155 13.411 8.09858 13.4336C8.1256 13.4562 8.14573 13.486 8.15666 13.5195C8.16758 13.553 8.16887 13.5889 8.16038 13.6231C8.15188 13.6573 8.13394 13.6884 8.10861 13.7129L7.23319 14.5608L7.43986 15.7587C7.46631 15.9125 7.30381 16.0296 7.16486 15.9571L6.08277 15.3912L5.00048 15.9571C4.86173 16.0298 4.69923 15.9125 4.72569 15.7585L4.93236 14.5606L4.05694 13.7127C4.03173 13.6882 4.0139 13.6571 4.00547 13.6229C3.99705 13.5888 3.99837 13.553 4.00929 13.5196C4.0202 13.4862 4.04028 13.4565 4.06722 13.4339C4.09417 13.4113 4.12692 13.3967 4.16173 13.3918L5.37173 13.2158Z" fill="#8A8A8E" stroke="#8A8A8E" stroke-width="0.5" stroke-linecap="round" stroke-linejoin="round"/>
<path d="M5.37173 20.2158L5.91298 19.1258C5.92874 19.0943 5.95297 19.0677 5.98296 19.0492C6.01295 19.0306 6.04751 19.0208 6.08277 19.0208C6.11803 19.0208 6.1526 19.0306 6.18259 19.0492C6.21258 19.0677 6.23681 19.0943 6.25256 19.1258L6.79381 20.2158L8.00381 20.3916C8.03872 20.3965 8.07155 20.411 8.09858 20.4336C8.1256 20.4562 8.14573 20.486 8.15666 20.5195C8.16758 20.553 8.16887 20.5889 8.16038 20.6231C8.15188 20.6573 8.13394 20.6884 8.10861 20.7129L7.23319 21.5608L7.43986 22.7587C7.46631 22.9125 7.30381 23.0296 7.16486 22.9571L6.08277 22.3912L5.00048 22.9571C4.86173 23.0298 4.69923 22.9125 4.72569 22.7585L4.93236 21.5606L4.05694 20.7127C4.03173 20.6882 4.0139 20.6571 4.00547 20.6229C3.99705 20.5888 3.99837 20.553 4.00929 20.5196C4.0202 20.4862 4.04028 20.4565 4.06722 20.4339C4.09417 20.4113 4.12692 20.3967 4.16173 20.3918L5.37173 20.2158Z" fill="#8A8A8E" stroke="#8A8A8E" stroke-width="0.5" stroke-linecap="round" stroke-linejoin="round"/>
</svg>
