<svg width="28" height="28" viewBox="0 0 28 28" fill="none" xmlns="http://www.w3.org/2000/svg">
<path d="M5.83333 23.3334V22.1667C5.83333 20.0008 6.69374 17.9235 8.22529 16.392C9.75684 14.8604 11.8341 14 14 14M14 14C16.1659 14 18.2432 14.8604 19.7747 16.392C21.3062 17.9235 22.1667 20.0008 22.1667 22.1667V23.3334M14 14C15.2377 14 16.4247 13.5084 17.2998 12.6332C18.175 11.758 18.6667 10.571 18.6667 9.33335C18.6667 8.09568 18.175 6.90869 17.2998 6.03352C16.4247 5.15835 15.2377 4.66669 14 4.66669C12.7623 4.66669 11.5753 5.15835 10.7002 6.03352C9.82499 6.90869 9.33333 8.09568 9.33333 9.33335C9.33333 10.571 9.82499 11.758 10.7002 12.6332C11.5753 13.5084 12.7623 14 14 14Z" stroke="#8A8A8E" stroke-width="1.75" stroke-linecap="round" stroke-linejoin="round"/>
</svg>
