<svg width="28" height="28" viewBox="0 0 28 28" fill="none" xmlns="http://www.w3.org/2000/svg">
<path d="M22.1667 25.3081H5.83333C5.21449 25.3081 4.621 25.0623 4.18342 24.6247C3.74583 24.1871 3.5 23.5937 3.5 22.9748V12.4748C3.5 11.856 3.74583 11.2625 4.18342 10.8249C4.621 10.3873 5.21449 10.1415 5.83333 10.1415H22.1667C22.7855 10.1415 23.379 10.3873 23.8166 10.8249C24.2542 11.2625 24.5 11.856 24.5 12.4748V22.9748C24.5 23.5937 24.2542 24.1871 23.8166 24.6247C23.379 25.0623 22.7855 25.3081 22.1667 25.3081Z" stroke="#8A8A8E" stroke-width="1.75"/>
<path d="M19.25 18.3081C19.0953 18.3081 18.9469 18.2467 18.8375 18.1373C18.7281 18.0279 18.6667 17.8795 18.6667 17.7248C18.6667 17.5701 18.7281 17.4217 18.8375 17.3123C18.9469 17.2029 19.0953 17.1415 19.25 17.1415C19.4047 17.1415 19.5531 17.2029 19.6625 17.3123C19.7719 17.4217 19.8334 17.5701 19.8334 17.7248C19.8334 17.8795 19.7719 18.0279 19.6625 18.1373C19.5531 18.2467 19.4047 18.3081 19.25 18.3081Z" fill="#8A8A8E" stroke="#8A8A8E" stroke-width="1.75" stroke-linecap="round" stroke-linejoin="round"/>
<path d="M13.4561 3.0278L11.7241 6.5158L7.85207 7.07913C7.74066 7.09481 7.63589 7.14142 7.54965 7.21368C7.46342 7.28594 7.39918 7.38095 7.36425 7.48789C7.32932 7.59484 7.32509 7.70944 7.35205 7.81867C7.379 7.9279 7.43606 8.02738 7.51674 8.1058L8.91741 9.46246L9.61774 10.1408L18.3811 10.1415L19.0814 9.46313L20.4821 8.10646C20.5631 8.0281 20.6205 7.92852 20.6477 7.8191C20.6749 7.70967 20.6708 7.59481 20.6358 7.48761C20.6009 7.38042 20.5365 7.28521 20.45 7.21287C20.3635 7.14052 20.2584 7.09395 20.1467 7.07846L16.2747 6.5158L14.5427 3.0278C14.4923 2.92685 14.4148 2.84195 14.3188 2.78261C14.2228 2.72327 14.1122 2.69183 13.9994 2.69183C13.8866 2.69183 13.776 2.72327 13.68 2.78261C13.584 2.84195 13.5065 2.92685 13.4561 3.0278Z" stroke="#8A8A8E" stroke-width="1.75" stroke-linecap="round" stroke-linejoin="round"/>
</svg>
