<svg width="28" height="28" viewBox="0 0 28 28" fill="none" xmlns="http://www.w3.org/2000/svg">
<path d="M22.1667 25.3081H5.83333C5.21449 25.3081 4.621 25.0623 4.18342 24.6247C3.74583 24.1871 3.5 23.5937 3.5 22.9748V12.4748C3.5 11.856 3.74583 11.2625 4.18342 10.8249C4.621 10.3873 5.21449 10.1415 5.83333 10.1415H22.1667C22.7855 10.1415 23.379 10.3873 23.8166 10.8249C24.2542 11.2625 24.5 11.856 24.5 12.4748V22.9748C24.5 23.5937 24.2542 24.1871 23.8166 24.6247C23.379 25.0623 22.7855 25.3081 22.1667 25.3081Z" fill="#6E5AF6" stroke="#6E5AF6" stroke-width="1.75"/>
<path d="M19.25 18.3081C19.0953 18.3081 18.9469 18.2467 18.8375 18.1373C18.7281 18.0279 18.6667 17.8795 18.6667 17.7248C18.6667 17.5701 18.7281 17.4217 18.8375 17.3123C18.9469 17.2029 19.0953 17.1415 19.25 17.1415C19.4047 17.1415 19.5531 17.2029 19.6625 17.3123C19.7719 17.4217 19.8334 17.5701 19.8334 17.7248C19.8334 17.8795 19.7719 18.0279 19.6625 18.1373C19.5531 18.2467 19.4047 18.3081 19.25 18.3081Z" fill="white" stroke="white" stroke-width="1.75" stroke-linecap="round" stroke-linejoin="round"/>
<path d="M13.4561 3.02786L11.7241 6.51586L7.85207 7.07919C7.74066 7.09487 7.63589 7.14148 7.54965 7.21374C7.46342 7.286 7.39918 7.38101 7.36425 7.48795C7.32932 7.5949 7.32509 7.7095 7.35205 7.81873C7.379 7.92796 7.43606 8.02744 7.51674 8.10586L8.91741 9.46252L9.61774 10.1409L18.3811 10.1415L19.0814 9.46319L20.4821 8.10652C20.5631 8.02816 20.6205 7.92858 20.6477 7.81916C20.6749 7.70973 20.6708 7.59487 20.6358 7.48767C20.6009 7.38048 20.5365 7.28528 20.45 7.21293C20.3635 7.14058 20.2584 7.09401 20.1467 7.07852L16.2747 6.51586L14.5427 3.02786C14.4923 2.92691 14.4148 2.84201 14.3188 2.78267C14.2228 2.72333 14.1122 2.69189 13.9994 2.69189C13.8866 2.69189 13.776 2.72333 13.68 2.78267C13.584 2.84201 13.5065 2.92691 13.4561 3.02786Z" stroke="#6E5AF6" stroke-width="1.75" stroke-linecap="round" stroke-linejoin="round"/>
</svg>
